<svg width="1440" height="851" viewBox="0 0 1440 851" fill="none" xmlns="http://www.w3.org/2000/svg">
<path d="M0 -3H1440V648C1440 648 1038 749.399 669.5 648C301 546.601 0 648 0 648V-3Z" fill="url(#paint0_linear_0_1)"/>
<g style="mix-blend-mode:overlay" opacity="0.7">
<path d="M620 322C620 555.064 427.035 744 189 744C-49.0347 744 -242 555.064 -242 322C-242 88.9358 -49.0347 -100 189 -100C427.035 -100 620 88.9358 620 322ZM-165.724 322C-165.724 513.818 -6.90852 669.317 189 669.317C384.909 669.317 543.724 513.818 543.724 322C543.724 130.182 384.909 -25.3166 189 -25.3166C-6.90852 -25.3166 -165.724 130.182 -165.724 322Z" fill="#91A4AE"/>
</g>
<g style="mix-blend-mode:overlay" opacity="0.7">
<path d="M1554 549.5C1554 716.014 1421.48 851 1258 851C1094.52 851 962 716.014 962 549.5C962 382.986 1094.52 248 1258 248C1421.48 248 1554 382.986 1554 549.5ZM1043.86 549.5C1043.86 669.965 1139.73 767.621 1258 767.621C1376.27 767.621 1472.14 669.965 1472.14 549.5C1472.14 429.035 1376.27 331.379 1258 331.379C1139.73 331.379 1043.86 429.035 1043.86 549.5Z" fill="#91A4AE"/>
</g>
<defs>
<linearGradient id="paint0_linear_0_1" x1="365.5" y1="-135.5" x2="1092" y2="984.5" gradientUnits="userSpaceOnUse">
<stop stop-color="#4275FA"/>
<stop offset="1" stop-color="#1102C6" stop-opacity="0.87"/>
</linearGradient>
</defs>
</svg>
